<svg width="92" height="103" viewBox="0 0 92 103" fill="none" xmlns="http://www.w3.org/2000/svg">
<g id="a">
<rect width="91.5759" height="127.49" rx="8" transform="matrix(0.997564 -0.0697565 0 1 0.577148 6.388)" fill="white" fill-opacity="0.1"/>
<path id="Vector" d="M60.3274 46.1363C57.4869 44.2361 54.1804 43.4179 50.7551 43.4825L50.2527 44.0424C53.3552 44.525 56.1472 45.7289 58.7959 47.4676C55.6326 46.1147 52.1464 45.3092 48.5293 45.2123C47.4394 45.1136 46.5411 45.1764 45.4634 45.2517C44.3856 45.3271 43.4873 45.3899 42.4217 45.6394C38.8533 46.2387 35.5133 47.5216 32.569 49.3016C34.95 47.2112 37.5472 45.6304 40.5523 44.7207L39.9769 44.2362C36.576 44.649 33.4155 45.9193 30.8671 48.1963C28.2027 53.9794 27.0241 60.3582 27.2948 66.8104C30.184 69.4068 34.0781 70.8835 38.0302 70.6072C38.0302 70.6072 39.1903 69.1269 40.0032 67.8456C37.6315 67.4869 35.3906 66.4192 33.8196 64.6053C35.1258 65.2135 36.4319 65.8218 37.7259 66.2559C39.3913 66.8391 41.0324 67.0742 42.6735 67.3092C44.1227 67.3827 45.572 67.4562 47.009 67.3557C48.4461 67.2553 49.871 66.9807 51.2959 66.7063C52.8883 66.2451 54.4807 65.7839 56.0487 64.9746C57.2698 64.3646 58.4785 63.5805 59.6873 62.7964C58.3841 64.8113 56.3136 66.1805 54.0149 66.8659C54.9982 68.0215 56.353 69.3259 56.353 69.3259C60.3051 69.0496 63.9558 67.0453 66.4555 64.072C65.8256 57.6449 63.7707 51.4923 60.3274 46.1363ZM40.7281 62.7229C38.9318 62.8485 37.2055 61.3951 37.0716 59.4807C36.9377 57.5661 38.4449 55.8867 40.2413 55.7611C42.0377 55.6354 43.764 57.0888 43.8978 59.0034C44.0317 60.9178 42.5245 62.5973 40.7281 62.7229ZM52.584 61.8938C50.7877 62.0194 49.0614 60.5661 48.9275 58.6516C48.7937 56.7371 50.3008 55.0576 52.0972 54.932C53.8936 54.8064 55.6199 56.2598 55.7537 58.1743C55.8876 60.0887 54.3804 61.7682 52.584 61.8938Z" fill="white"/>
</g>
</svg>
