<svg width="23" height="23" viewBox="0 0 23 23" fill="none" xmlns="http://www.w3.org/2000/svg">
<path id="Vector" d="M11.2505 0.11462C8.30647 0.117804 5.48398 1.28871 3.40226 3.37042C1.32055 5.45214 0.149645 8.27463 0.146461 11.2186C0.0307939 20.0778 10.4723 25.4956 17.6353 20.3026C17.7854 20.1981 17.9134 20.065 18.0119 19.9109C18.1104 19.7568 18.1775 19.5847 18.2092 19.4046C18.241 19.2245 18.2369 19.0398 18.1971 18.8613C18.1573 18.6828 18.0826 18.5139 17.9773 18.3643C17.872 18.2148 17.7382 18.0875 17.5835 17.9898C17.4289 17.8922 17.2565 17.826 17.0762 17.7952C16.8959 17.7644 16.7113 17.7695 16.533 17.8103C16.3547 17.8511 16.1862 17.9267 16.0372 18.0328C10.7138 21.9358 2.79569 17.8311 2.92246 11.2186C3.35922 0.179393 19.1426 0.181244 19.5785 11.2186V12.6066C19.5785 12.9747 19.4322 13.3278 19.1719 13.5881C18.9116 13.8484 18.5586 13.9946 18.1905 13.9946C17.8223 13.9946 17.4693 13.8484 17.209 13.5881C16.9487 13.3278 16.8025 12.9747 16.8025 12.6066V11.2186C16.5693 3.88165 5.93072 3.88258 5.69846 11.2186C5.7077 12.2946 6.02854 13.3449 6.62216 14.2424C7.21578 15.1398 8.05674 15.8461 9.04332 16.2756C10.0299 16.7052 11.1198 16.8397 12.1812 16.6628C13.2426 16.4859 14.23 16.0053 15.024 15.279C15.5751 15.9245 16.3104 16.3861 17.1312 16.602C17.9521 16.8179 18.8193 16.7779 19.6168 16.4872C20.4142 16.1964 21.1038 15.669 21.5931 14.9754C22.0824 14.2819 22.348 13.4554 22.3545 12.6066V11.2186C22.3513 8.27463 21.1804 5.45214 19.0987 3.37042C17.0169 1.28871 14.1944 0.117804 11.2505 0.11462V0.11462ZM11.2505 13.9946C10.5142 13.9946 9.80813 13.7021 9.28753 13.1815C8.76693 12.6609 8.47446 11.9549 8.47446 11.2186C8.47446 10.4824 8.76693 9.77629 9.28753 9.25569C9.80813 8.73509 10.5142 8.44262 11.2505 8.44262C11.9867 8.44262 12.6928 8.73509 13.2134 9.25569C13.734 9.77629 14.0265 10.4824 14.0265 11.2186C14.0265 11.9549 13.734 12.6609 13.2134 13.1815C12.6928 13.7021 11.9867 13.9946 11.2505 13.9946Z" fill="white"/>
</svg>
