<svg width="24" height="16" viewBox="0 0 24 16" fill="none" xmlns="http://www.w3.org/2000/svg">
<path id="Vector" d="M19 0H5C3.67441 0.00158786 2.40356 0.528882 1.46622 1.46622C0.528882 2.40356 0.00158786 3.67441 0 5L0 11C0.00158786 12.3256 0.528882 13.5964 1.46622 14.5338C2.40356 15.4711 3.67441 15.9984 5 16H19C20.3256 15.9984 21.5964 15.4711 22.5338 14.5338C23.4711 13.5964 23.9984 12.3256 24 11V5C23.9984 3.67441 23.4711 2.40356 22.5338 1.46622C21.5964 0.528882 20.3256 0.00158786 19 0ZM4 13C3.80222 13 3.60888 12.9414 3.44443 12.8315C3.27998 12.7216 3.15181 12.5654 3.07612 12.3827C3.00043 12.2 2.98063 11.9989 3.01921 11.8049C3.0578 11.6109 3.15304 11.4327 3.29289 11.2929C3.43275 11.153 3.61093 11.0578 3.80491 11.0192C3.99889 10.9806 4.19996 11.0004 4.38268 11.0761C4.56541 11.1518 4.72159 11.28 4.83147 11.4444C4.94135 11.6089 5 11.8022 5 12C5 12.2652 4.89464 12.5196 4.70711 12.7071C4.51957 12.8946 4.26522 13 4 13ZM4 5C3.80222 5 3.60888 4.94135 3.44443 4.83147C3.27998 4.72159 3.15181 4.56541 3.07612 4.38268C3.00043 4.19996 2.98063 3.99889 3.01921 3.80491C3.0578 3.61093 3.15304 3.43275 3.29289 3.29289C3.43275 3.15304 3.61093 3.0578 3.80491 3.01921C3.99889 2.98063 4.19996 3.00043 4.38268 3.07612C4.56541 3.15181 4.72159 3.27998 4.83147 3.44443C4.94135 3.60888 5 3.80222 5 4C5 4.26522 4.89464 4.51957 4.70711 4.70711C4.51957 4.89464 4.26522 5 4 5ZM12 12C11.2089 12 10.4355 11.7654 9.77772 11.3259C9.11992 10.8864 8.60723 10.2616 8.30448 9.53073C8.00173 8.79983 7.92252 7.99556 8.07686 7.21964C8.2312 6.44371 8.61216 5.73098 9.17157 5.17157C9.73098 4.61216 10.4437 4.2312 11.2196 4.07686C11.9956 3.92252 12.7998 4.00173 13.5307 4.30448C14.2616 4.60723 14.8864 5.11992 15.3259 5.77772C15.7654 6.43552 16 7.20887 16 8C16 9.06087 15.5786 10.0783 14.8284 10.8284C14.0783 11.5786 13.0609 12 12 12ZM20 13C19.8022 13 19.6089 12.9414 19.4444 12.8315C19.28 12.7216 19.1518 12.5654 19.0761 12.3827C19.0004 12.2 18.9806 11.9989 19.0192 11.8049C19.0578 11.6109 19.153 11.4327 19.2929 11.2929C19.4327 11.153 19.6109 11.0578 19.8049 11.0192C19.9989 10.9806 20.2 11.0004 20.3827 11.0761C20.5654 11.1518 20.7216 11.28 20.8315 11.4444C20.9414 11.6089 21 11.8022 21 12C21 12.2652 20.8946 12.5196 20.7071 12.7071C20.5196 12.8946 20.2652 13 20 13ZM20 5C19.8022 5 19.6089 4.94135 19.4444 4.83147C19.28 4.72159 19.1518 4.56541 19.0761 4.38268C19.0004 4.19996 18.9806 3.99889 19.0192 3.80491C19.0578 3.61093 19.153 3.43275 19.2929 3.29289C19.4327 3.15304 19.6109 3.0578 19.8049 3.01921C19.9989 2.98063 20.2 3.00043 20.3827 3.07612C20.5654 3.15181 20.7216 3.27998 20.8315 3.44443C20.9414 3.60888 21 3.80222 21 4C21 4.26522 20.8946 4.51957 20.7071 4.70711C20.5196 4.89464 20.2652 5 20 5ZM14 8C14 8.39556 13.8827 8.78224 13.6629 9.11114C13.4432 9.44004 13.1308 9.69638 12.7654 9.84776C12.3999 9.99913 11.9978 10.0387 11.6098 9.96157C11.2219 9.8844 10.8655 9.69392 10.5858 9.41421C10.3061 9.13451 10.1156 8.77814 10.0384 8.39018C9.96126 8.00222 10.0009 7.60009 10.1522 7.23463C10.3036 6.86918 10.56 6.55682 10.8889 6.33706C11.2178 6.1173 11.6044 6 12 6C12.5304 6 13.0391 6.21071 13.4142 6.58579C13.7893 6.96086 14 7.46957 14 8Z" fill="white"/>
</svg>
