<svg width="92" height="103" viewBox="0 0 92 103" fill="none" xmlns="http://www.w3.org/2000/svg">
<g id="a">
<rect width="91.5759" height="127.49" rx="8" transform="matrix(0.997564 -0.0697565 0 1 0.0703125 6.388)" fill="white" fill-opacity="0.1"/>
<path id="Vector" d="M48.9467 69.674C34.8147 70.6622 26.0651 61.3725 24.5828 45.0001L31.6617 44.5051C32.7357 56.523 38.3108 61.2556 42.518 62.0175L41.2465 43.8348L47.9123 43.3687L48.6381 53.7476C52.6888 53.0154 56.6463 47.986 57.7293 42.6822L64.3949 42.2161C63.7323 48.705 59.4127 53.7598 56.2417 55.9355C59.6589 57.2808 65.2439 61.0357 67.7808 68.357L60.4433 68.8701C58.5183 63.988 54.3216 60.4 49.0919 60.2376L49.7478 69.618L48.9467 69.674Z" fill="white"/>
</g>
</svg>
