<svg width="93" height="103" viewBox="0 0 93 103" fill="none" xmlns="http://www.w3.org/2000/svg">
<g id="a">
<rect width="91.5759" height="127.49" rx="8" transform="matrix(0.997564 -0.0697565 0 1 0.82373 6.388)" fill="white" fill-opacity="0.1"/>
<path id="Vector" fill-rule="evenodd" clip-rule="evenodd" d="M31.394 72.0916C30.6392 71.9246 29.9373 71.5825 29.3474 71.0944C28.7576 70.6063 28.2971 69.9864 28.0048 69.287C26.3622 65.6817 24.8712 50.2513 27.3228 47.0132C28.1404 45.9584 29.3499 45.2596 30.6889 45.0685C37.7857 43.8181 59.8814 42.3736 62.4812 43.0967C63.2106 43.2728 63.8891 43.6079 64.4659 44.0769C65.0428 44.5459 65.503 45.1366 65.8121 45.8048C67.5916 49.5263 68.6154 63.4309 67.1044 67.2316C66.7023 68.2216 65.9713 69.0519 65.029 69.5888C62.455 71.0759 35.0089 72.97 31.394 72.0916ZM42.2386 64.0436L54.5962 56.6439L41.3255 50.986L42.2386 64.0436Z" fill="white"/>
</g>
</svg>
