<svg width="24" height="24" viewBox="0 0 24 24" fill="none" xmlns="http://www.w3.org/2000/svg">
<g id="Group 18">
<rect id="Rectangle 5" width="24" height="24" rx="5" fill="white" fill-opacity="0.0"/>
<path id="Vector" d="M6.22461 15.5C6.68426 16.3374 7.70361 16.6251 8.50137 16.1426C8.50192 16.1423 8.50244 16.142 8.50299 16.1416L8.75027 15.9917C9.21706 16.411 9.7536 16.7361 10.3329 16.9507V17.25C10.3329 18.2165 11.0793 19 12 19C12.9207 19 13.6671 18.2165 13.6671 17.25V16.9508C14.2465 16.7357 14.783 16.4102 15.2497 15.9906L15.4981 16.1411C16.2961 16.6243 17.3162 16.337 17.7765 15.4994C18.2369 14.6618 17.9632 13.591 17.1652 13.1077L16.9185 12.9584C17.0296 12.324 17.0296 11.6737 16.9185 11.0392L17.1652 10.8899C17.9632 10.4067 18.2369 9.33587 17.7765 8.49822C17.3162 7.6606 16.2961 7.3733 15.4981 7.85655L15.2509 8.00647C14.7836 7.58776 14.2467 7.26324 13.6671 7.04925V6.75C13.6671 5.78351 12.9207 5 12 5C11.0793 5 10.3329 5.78351 10.3329 6.75V7.04925C9.75353 7.26425 9.21695 7.58975 8.75027 8.00943L8.50187 7.85835C7.7039 7.37508 6.68384 7.66238 6.22349 8.5C5.76313 9.33762 6.0368 10.4084 6.83477 10.8917L7.0815 11.041C6.97043 11.6754 6.97043 12.3257 7.0815 12.9602L6.83477 13.1095C6.03901 13.594 5.76623 14.6627 6.22461 15.5ZM12 9.66668C13.2276 9.66668 14.2228 10.7113 14.2228 12C14.2228 13.2887 13.2276 14.3333 12 14.3333C10.7724 14.3333 9.7772 13.2887 9.7772 12C9.7772 10.7113 10.7724 9.66668 12 9.66668Z" fill="white"/>
</g>
</svg>
