<svg width="24" height="24" viewBox="0 0 24 24" fill="none" xmlns="http://www.w3.org/2000/svg">
<g id="Group 18">
<rect id="Rectangle 5" width="24" height="24" rx="5" fill="white" fill-opacity="0.0"/>
<path id="wheel (1) 1 (Traced)" fill-rule="evenodd" clip-rule="evenodd" d="M10.4755 5.33006C10.6066 5.17325 10.7435 5.0813 10.934 5.02228C10.9844 5.00668 11.4783 4.99703 12.0315 5.00083C12.9967 5.00747 13.0435 5.01102 13.1908 5.08826C13.2753 5.13253 13.3975 5.23359 13.4624 5.31284C13.5612 5.43334 13.6228 5.46871 13.8392 5.52909C15.9082 6.1064 17.6063 7.56652 18.4279 9.47476C19.2475 11.3782 19.1851 13.3875 18.2496 15.2204C17.4669 16.754 16.1661 17.9378 14.5703 18.5689C14.2947 18.6778 14.0531 18.7517 13.5768 18.8727L13.4213 18.9122C12.272 19.0347 11.6273 19.0294 10.477 18.8941L10.349 18.8623C10.2786 18.8448 10.04 18.7736 9.81869 18.704C7.23682 17.8921 5.49186 15.8747 5.06042 13.2027C5.02019 12.9535 5 12.607 5 12.1649C5 11.7228 5.02019 11.3763 5.06042 11.1271C5.43287 8.8204 6.77985 7.00654 8.85999 6.01054C9.28524 5.80691 10.1509 5.49207 10.2855 5.49207C10.3156 5.49207 10.4011 5.41917 10.4755 5.33006ZM11.818 8.95052C11.7667 8.91525 11.4599 8.35301 11.0202 7.4886C10.6273 6.7161 10.2949 6.08103 10.2817 6.07737C10.2505 6.06873 9.47895 6.33356 9.44859 6.36334C9.41187 6.39932 9.4837 6.54942 10.512 8.58516L11.4854 10.5123L11.603 10.4866C11.7528 10.4537 12.1981 10.4532 12.3457 10.4857L12.4586 10.5105L13.4544 8.4281C14.002 7.28278 14.4426 6.33837 14.4335 6.32943C14.4105 6.30683 13.6678 6.06335 13.6567 6.07476C13.6518 6.07985 13.3262 6.7161 12.9332 7.4886C12.4935 8.35284 12.1865 8.91529 12.1352 8.95052C12.0292 9.02334 11.924 9.02334 11.818 8.95052ZM10.8682 10.5957C10.8267 10.5018 10.3627 9.57331 9.8372 8.5325C9.31169 7.49165 8.8778 6.64008 8.87304 6.64008C8.86829 6.64008 8.74609 6.71161 8.60151 6.79904C7.54317 7.43909 6.70078 8.36647 6.16221 9.48452C5.97319 9.87692 5.74617 10.4962 5.77938 10.5288C5.79485 10.5439 7.60564 10.9369 9.43465 11.3221C9.86715 11.4132 10.2475 11.4951 10.2798 11.5042C10.3213 11.5159 10.38 11.4511 10.4808 11.2819C10.5591 11.1506 10.6952 10.981 10.7834 10.9049L10.9436 10.7666L10.8682 10.5957ZM7.60568 8.7922C7.54592 8.68267 7.56395 8.57935 7.65912 8.48604C7.71819 8.42807 7.79006 8.398 7.86942 8.39811C7.97165 8.39822 8.07882 8.47363 8.57514 8.89455C8.897 9.16753 9.18364 9.41855 9.21217 9.45238C9.29099 9.54601 9.27537 9.71405 9.17834 9.81533C9.07812 9.91997 8.94042 9.93056 8.81189 9.84345C8.63479 9.72349 7.64142 8.85767 7.60568 8.7922ZM16.5576 9.21273C16.6783 9.10442 16.6712 8.89366 16.5436 8.79521C16.4972 8.75945 16.4629 8.73233 16.4238 8.72163C16.3057 8.68923 16.1447 8.80725 15.478 9.29112C14.8963 9.71315 14.8389 9.78157 14.907 9.97142C14.9501 10.0916 15.0997 10.1736 15.2212 10.1437C15.3072 10.1226 16.3651 9.38565 16.5576 9.21273ZM18.3728 12.1649C18.372 11.7012 18.356 11.2504 18.3372 11.1632C18.3184 11.0759 18.2868 11.0011 18.267 10.997C18.2472 10.9928 17.8689 11.0762 17.4263 11.1823C16.9837 11.2884 16.0291 11.5134 15.305 11.6822C14.5808 11.8511 13.9265 12.0052 13.8511 12.0246L13.7139 12.06L13.7127 12.2829C13.7117 12.4732 13.6583 12.6873 13.5537 12.9205C13.5345 12.9632 13.9617 13.309 15.3485 14.3734C16.3494 15.1417 17.1853 15.7748 17.2059 15.7802C17.314 15.8086 17.9018 14.699 18.0972 14.0978C18.3358 13.3636 18.3744 13.0927 18.3728 12.1649ZM12.3047 13.2392C13.2411 12.8925 13.3115 11.5708 12.4163 11.1412C11.9905 10.9369 11.5529 11.0051 11.1813 11.3337C10.8252 11.6487 10.7171 12.2114 10.9286 12.6492C11.1831 13.1761 11.7817 13.4327 12.3047 13.2392ZM8.21451 13.1243C8.38283 13.0499 8.41973 12.8164 8.28419 12.6834C8.16762 12.5691 8.11353 12.5718 7.23185 12.7356C6.48264 12.8749 6.39047 12.911 6.34658 13.0826C6.31557 13.2039 6.4156 13.3784 6.53264 13.4072C6.63026 13.4312 8.06693 13.1896 8.21451 13.1243ZM15.6256 13.4001C15.4536 13.2902 15.4894 13.0271 15.6896 12.9292C15.739 12.905 15.8208 12.8951 15.8714 12.9073C15.9219 12.9194 16.2843 13.0149 16.6765 13.1196C17.4405 13.3235 17.5177 13.3648 17.5177 13.5696C17.5177 13.6925 17.3749 13.851 17.2641 13.851C17.1453 13.851 15.7154 13.4575 15.6256 13.4001ZM11.5728 13.8352C11.3955 13.8025 11.1228 13.6844 10.9824 13.5794C10.8372 13.4707 10.7912 13.4704 10.6774 13.5774C10.6138 13.6372 7.35979 16.2368 7.20873 16.3484C7.17285 16.3749 7.3938 16.6132 7.69273 16.8702C8.54281 17.6014 9.554 18.1061 10.6233 18.3332C10.9402 18.4004 11.7341 18.4989 11.7535 18.4734C11.7621 18.462 11.7152 13.8752 11.7063 13.864C11.7041 13.8612 11.644 13.8483 11.5728 13.8352ZM9.51099 16.0951C9.71394 15.7191 9.90636 15.3914 9.93862 15.3667C10.0083 15.3134 10.1812 15.3081 10.2733 15.3564C10.3094 15.3754 10.3595 15.4394 10.3845 15.4987C10.4264 15.5979 10.4176 15.6301 10.2746 15.9036C9.91361 16.5937 9.64555 17.0648 9.58992 17.1067C9.49826 17.1758 9.29841 17.1614 9.2152 17.0798C9.08127 16.9484 9.12007 16.8193 9.51099 16.0951ZM14.4067 16.9722C14.3544 16.7992 13.7903 15.5608 13.7432 15.5157C13.5747 15.3543 13.274 15.4745 13.2673 15.706C13.2649 15.7905 13.7062 16.8587 13.8814 17.1925C14.0369 17.4887 14.5036 17.2929 14.4067 16.9722Z" fill="white"/>
</g>
</svg>
