<svg width="12" height="12" viewBox="0 0 12 12" fill="none" xmlns="http://www.w3.org/2000/svg">
<g id="fi-ss-box-alt" clip-path="url(#clip0_1_161)">
<path id="Vector" d="M8 0H10.5C10.8978 0 11.2794 0.158035 11.5607 0.43934C11.842 0.720644 12 1.10218 12 1.5V2.5H8V0ZM7 0H5V4.5H7V0ZM12 3.5V12H0V3.5H4V5.5H8V3.5H12ZM10.5 9.5H8V10.5H10.5V9.5ZM4 2.5V0H1.5C1.10218 0 0.720644 0.158035 0.43934 0.43934C0.158035 0.720644 0 1.10218 0 1.5L0 2.5H4Z" fill="white"/>
</g>
<defs>
<clipPath id="clip0_1_161">
<rect width="12" height="12" fill="white"/>
</clipPath>
</defs>
</svg>
