<svg width="126" height="126" viewBox="0 0 126 126" fill="none" xmlns="http://www.w3.org/2000/svg">
<g id="Icon">
<g id="Rectangle 18" filter="url(#filter0_d_1_780)">
<rect x="38" y="21" width="50" height="50" rx="10" fill="#FAC934" fill-opacity="0.2"/>
<rect x="37.5" y="20.5" width="51" height="51" rx="10.5" stroke="#FAC934"/>
</g>
<g id="Group">
<path id="Vector" d="M63 46C65.7614 46 68 43.7614 68 41C68 38.2386 65.7614 36 63 36C60.2386 36 58 38.2386 58 41C58 43.7614 60.2386 46 63 46Z" fill="white"/>
<path id="Vector_2" d="M63 47C58.038 47 54 50.589 54 55C54 55.2652 54.1054 55.5196 54.2929 55.7071C54.4804 55.8946 54.7348 56 55 56H71C71.2652 56 71.5196 55.8946 71.7071 55.7071C71.8946 55.5196 72 55.2652 72 55C72 50.589 67.963 47 63 47Z" fill="white"/>
</g>
</g>
<defs>
<filter id="filter0_d_1_780" x="0.700001" y="0.700001" width="124.6" height="124.6" filterUnits="userSpaceOnUse" color-interpolation-filters="sRGB">
<feFlood flood-opacity="0" result="BackgroundImageFix"/>
<feColorMatrix in="SourceAlpha" type="matrix" values="0 0 0 0 0 0 0 0 0 0 0 0 0 0 0 0 0 0 127 0" result="hardAlpha"/>
<feOffset dy="17"/>
<feGaussianBlur stdDeviation="18.15"/>
<feColorMatrix type="matrix" values="0 0 0 0 0.980392 0 0 0 0 0.788235 0 0 0 0 0.203922 0 0 0 0.3 0"/>
<feBlend mode="normal" in2="BackgroundImageFix" result="effect1_dropShadow_1_780"/>
<feBlend mode="normal" in="SourceGraphic" in2="effect1_dropShadow_1_780" result="shape"/>
</filter>
</defs>
</svg>
