<svg width="13" height="9" viewBox="0 0 13 9" fill="none" xmlns="http://www.w3.org/2000/svg">
<path id="Vector" d="M12.586 3.96527L9.37407 0.755204C9.20695 0.588033 8.98093 0.493087 8.74456 0.490766C8.50819 0.488445 8.28035 0.578936 8.10998 0.742793C7.74516 1.0937 7.75381 1.68795 8.11186 2.046L9.7844 3.71967H0.902655C0.663256 3.71967 0.433662 3.81477 0.264382 3.98405C0.0951009 4.15334 0 4.38293 0 4.62233C0 4.86173 0.0951009 5.09132 0.264382 5.2606C0.433662 5.42988 0.663256 5.52498 0.902655 5.52498H9.78478L8.09606 7.2137C7.92674 7.38297 7.83159 7.61258 7.83156 7.85201C7.83152 8.09143 7.9266 8.32107 8.09587 8.49039C8.26515 8.65972 8.49476 8.75486 8.73418 8.7549C8.97361 8.75493 9.20324 8.65986 9.37257 8.49058L12.586 5.27826C12.6723 5.19211 12.7408 5.08978 12.7876 4.97713C12.8343 4.86448 12.8583 4.74372 12.8583 4.62176C12.8583 4.49981 12.8343 4.37905 12.7876 4.2664C12.7408 4.15375 12.6723 4.05142 12.586 3.96527Z" fill="#FAC934"/>
</svg>
