<svg width="15" height="20" viewBox="0 0 15 20" fill="none" xmlns="http://www.w3.org/2000/svg">
<path id="Vector" d="M11.9212 0H3.69237C2.87573 0.000995301 2.09282 0.325847 1.51536 0.903301C0.937907 1.48076 0.613056 2.26367 0.612061 3.08031V4.98115C0.612061 5.22055 0.707162 5.45014 0.876442 5.61942C1.04572 5.7887 1.27532 5.88381 1.51472 5.88381C1.75411 5.88381 1.98371 5.7887 2.15299 5.61942C2.32227 5.45014 2.41737 5.22055 2.41737 4.98115V3.08031C2.41777 2.74228 2.55223 2.41821 2.79125 2.17919C3.03027 1.94017 3.35434 1.80571 3.69237 1.80531H11.9212C12.259 1.80601 12.5827 1.94061 12.8215 2.17961C13.0602 2.41861 13.1944 2.74251 13.1947 3.08031V16.1643C13.1944 16.5023 13.06 16.8264 12.8211 17.0654C12.5821 17.3044 12.2581 17.4389 11.9201 17.4393H3.69237C3.35434 17.4389 3.03027 17.3044 2.79125 17.0654C2.55223 16.8264 2.41777 16.5023 2.41737 16.1643V13.9652C2.41737 13.7258 2.32227 13.4962 2.15299 13.3269C1.98371 13.1576 1.75411 13.0625 1.51472 13.0625C1.27532 13.0625 1.04572 13.1576 0.876442 13.3269C0.707162 13.4962 0.612061 13.7258 0.612061 13.9652V16.1643C0.613056 16.9809 0.937907 17.7638 1.51536 18.3413C2.09282 18.9188 2.87573 19.2436 3.69237 19.2446H11.9212C12.7376 19.2432 13.5201 18.9182 14.0972 18.3408C14.6744 17.7634 14.999 16.9807 15 16.1643V3.08031C14.999 2.26393 14.6744 1.48124 14.0972 0.903832C13.5201 0.32642 12.7376 0.00139322 11.9212 0Z" fill="#FAC934"/>
</svg>
