<svg width="41" height="46" viewBox="0 0 41 46" fill="none" xmlns="http://www.w3.org/2000/svg">
<g id="Logo">
<g id="OBJECTS">
<g id="Group">
<path id="Vector" d="M8.32819 13.8792V21.7483H17.4302C14.8817 22.5531 12.273 23.5951 9.52849 24.8453C7.30844 25.8633 5.10559 27.0396 2.93713 28.3637C1.95006 28.9673 0.969874 29.6036 0 30.2673V5.55103H21.8634V13.8792H8.32819Z" fill="#FF8600"/>
<path id="Vector_2" d="M21.8634 37.1305V45.4552H0V37.7599C0.490096 37.2921 0.978471 36.8347 1.47717 36.3842C2.21489 35.7187 2.96293 35.0755 3.72129 34.453C5.22425 33.2132 6.76332 32.0576 8.32819 31.0017V37.1288H21.8634V37.1305Z" fill="#FF8600"/>
<g id="Vector_3" style="mix-blend-mode:overlay" opacity="0.4">
<path d="M2.93909 28.3637C1.95202 28.9673 0.971827 29.6036 0.00195312 30.2673V5.55103L2.93909 28.3637Z" fill="black"/>
</g>
<g id="Vector_4" style="mix-blend-mode:overlay" opacity="0.4">
<path d="M21.8634 45.4551H0V37.7597C0.490096 37.292 0.978471 36.8346 1.47717 36.384C2.21489 35.7185 2.96293 35.0754 3.72129 34.4529L4.81498 42.5369L21.8634 45.4551Z" fill="black"/>
</g>
<g id="Vector_5" style="mix-blend-mode:overlay" opacity="0.5">
<path d="M0.00195312 5.55103L19.9342 7.55784L21.8637 13.8792V5.55103H0.00195312Z" fill="white"/>
</g>
<g id="Vector_6" style="mix-blend-mode:overlay" opacity="0.5">
<path d="M8.32812 37.1304L20.0818 39.2025L21.8634 45.4551V37.1304H8.32812Z" fill="white"/>
</g>
<g id="Vector_7" style="mix-blend-mode:overlay" opacity="0.3">
<path d="M1.70582 7.66113L4.21821 25.7328C4.21821 25.7328 8.07019 23.9254 9.97038 23.4474C9.97038 23.4474 8.64627 23.4474 5.95332 23.9082V11.7728H18.744L1.7041 7.66285L1.70582 7.66113Z" fill="white"/>
</g>
<g id="Vector_8" style="mix-blend-mode:overlay" opacity="0.3">
<path d="M4.96289 35.4537L5.76596 41.6118L19.4199 43.9573L7.3721 40.2739V33.6584L4.96289 35.4537Z" fill="white"/>
</g>
</g>
<g id="Group_2">
<path id="Vector_9" d="M39.4537 36.3187L24.2899 45.0303C22.5531 42.0072 23.5952 38.1484 26.62 36.4115L31.5416 33.5845C32.5081 33.029 33.0996 31.9955 33.0893 30.8795L33.0412 25.7257L24.6321 25.5159L24.8333 22.5203C24.8282 20.8162 26.2073 19.4301 27.9115 19.4267L39.2972 19.3958L39.4537 36.3204V36.3187Z" fill="#FF8600"/>
<g id="Group_3" style="mix-blend-mode:screen">
<path id="Vector_10" d="M39.4536 36.3187L24.2899 45.0303C23.504 42.714 29.4471 38.9325 35.6928 35.3436L35.7908 26.2795C35.8149 24.0766 34.0058 22.2933 31.8047 22.3484L24.835 22.5203C24.8299 20.8162 26.209 19.4301 27.9132 19.4267L39.2989 19.3958L39.4554 36.3204L39.4536 36.3187Z" fill="#FF8600"/>
</g>
</g>
<g id="Group_4">
<path id="Vector_11" d="M24.7903 8.48296L40.212 0C41.9041 3.07471 40.7812 6.93872 37.7065 8.62912L32.7006 11.3823C31.717 11.9239 31.1031 12.9523 31.0927 14.0752L31.0446 19.2616L39.2954 19.3923L39.2438 22.6407C39.2163 24.3552 37.8045 25.724 36.09 25.6965L24.6321 25.5142L24.7903 8.48124V8.48296Z" fill="#FF8600"/>
<g id="Group_5" style="mix-blend-mode:screen">
<path id="Vector_12" d="M24.7903 8.48296L40.212 0C40.9583 2.34558 34.9086 6.03936 28.5563 9.53365L28.2897 18.6529C28.2244 20.8695 30.0111 22.6975 32.2277 22.6837L39.2438 22.6407C39.2163 24.3552 37.8045 25.724 36.09 25.6965L24.6321 25.5142L24.7903 8.48124V8.48296Z" fill="#FF8600"/>
</g>
</g>
<path id="Vector_13" d="M19.4197 32.4788C21.5338 32.4788 23.2476 30.765 23.2476 28.6509C23.2476 26.5368 21.5338 24.823 19.4197 24.823C17.3056 24.823 15.5918 26.5368 15.5918 28.6509C15.5918 30.765 17.3056 32.4788 19.4197 32.4788Z" fill="url(#paint0_linear_1_18)"/>
</g>
</g>
<defs>
<linearGradient id="paint0_linear_1_18" x1="15.5918" y1="28.6509" x2="23.2459" y2="28.6509" gradientUnits="userSpaceOnUse">
<stop stop-color="#EB7A44"/>
<stop offset="0.74" stop-color="#F5B338"/>
<stop offset="1" stop-color="#FAC934"/>
</linearGradient>
</defs>
</svg>
