<svg width="642" height="313" viewBox="0 0 642 313" fill="none" xmlns="http://www.w3.org/2000/svg">
<path d="M0.0566659 101.927L11.9268 104.943L14.9433 93.0732L3.07317 90.0567L0.0566659 101.927ZM270.5 78.4994L269.049 78.8798L270.5 78.4994ZM444 162.999L442.599 162.464L444 162.999ZM610.5 312.5L623.743 301.336L607.453 295.45L610.5 312.5ZM8.26675 98.7892C11.0096 97.158 13.9206 95.3297 16.9817 93.3392L15.3463 90.8242C12.3087 92.7994 9.43274 94.6053 6.73325 96.2108L8.26675 98.7892ZM34.1023 81.7468C39.4661 78.0236 45.1329 74.044 51.0183 69.9419L49.3029 67.4808C43.4026 71.5932 37.7553 75.5592 32.3916 79.2823L34.1023 81.7468ZM67.9721 58.2631C73.5634 54.4735 79.2969 50.6639 85.133 46.9152L83.5117 44.3911C77.6501 48.1562 71.8954 51.9799 66.289 55.7798L67.9721 58.2631ZM102.622 36.1029C108.548 32.5955 114.534 29.2267 120.541 26.0744L119.147 23.418C113.088 26.5976 107.057 29.9919 101.094 33.5211L102.622 36.1029ZM138.996 17.1639C145.403 14.3612 151.784 11.8974 158.092 9.86534L157.172 7.00985C150.754 9.07747 144.278 11.5788 137.794 14.4154L138.996 17.1639ZM177.869 4.96577C184.795 3.81747 191.55 3.35477 198.072 3.70665L198.233 0.711003C191.461 0.34557 184.484 0.828018 177.378 2.00617L177.869 4.96577ZM217.74 7.64895C223.855 9.90753 229.672 13.1714 235.122 17.5952L237.012 15.266C231.307 10.6344 225.202 7.20699 218.78 4.83477L217.74 7.64895ZM248.807 32.3535C252.429 37.4179 255.804 43.249 258.895 49.9194L261.617 48.6581C258.456 41.8376 254.99 35.8415 251.247 30.6083L248.807 32.3535ZM266.172 68.8958C267.18 72.0853 268.14 75.412 269.049 78.8798L271.951 78.119C271.03 74.6054 270.056 71.2308 269.032 67.9914L266.172 68.8958ZM269.049 78.8798C269.863 81.983 270.731 85.0527 271.652 88.0866L274.522 87.2156C273.613 84.2181 272.755 81.1851 271.951 78.119L269.049 78.8798ZM277.901 106.161C280.249 112.19 282.801 118.041 285.53 123.693L288.231 122.388C285.536 116.807 283.016 111.029 280.697 105.073L277.901 106.161ZM294.539 140.557C297.844 146.171 301.326 151.529 304.951 156.603L307.392 154.858C303.819 149.858 300.385 144.575 297.124 139.035L294.539 140.557ZM316.825 171.626C321.175 176.591 325.665 181.169 330.251 185.318L332.264 183.094C327.769 179.027 323.36 174.533 319.082 169.649L316.825 171.626ZM345.342 197.185C350.928 200.934 356.587 204.037 362.248 206.423L363.413 203.659C357.949 201.355 352.458 198.349 347.014 194.694L345.342 197.185ZM380.873 211.613C387.499 212.475 394.017 212.218 400.293 210.724L399.598 207.805C393.707 209.208 387.559 209.458 381.26 208.639L380.873 211.613ZM417.977 202.606C422.9 199.09 427.512 194.568 431.735 188.987L429.343 187.177C425.283 192.541 420.885 196.843 416.234 200.165L417.977 202.606ZM441.637 172.385C442.957 169.594 444.213 166.644 445.401 163.535L442.599 162.464C441.436 165.506 440.21 168.385 438.925 171.104L441.637 172.385ZM445.401 163.535C446.567 160.485 447.783 157.5 449.044 154.581L446.29 153.391C445.012 156.349 443.78 159.374 442.599 162.464L445.401 163.535ZM457.402 137.393C460.535 131.638 463.859 126.199 467.344 121.081L464.865 119.393C461.323 124.594 457.947 130.118 454.767 135.959L457.402 137.393ZM478.971 105.85C483.233 100.87 487.659 96.3024 492.204 92.1516L490.181 89.9364C485.542 94.1723 481.032 98.8287 476.692 103.898L478.971 105.85ZM507.156 80.2648C512.569 76.5615 518.077 73.4076 523.618 70.8107L522.345 68.0942C516.651 70.7629 511.002 73.9983 505.462 77.7888L507.156 80.2648ZM541.481 64.3854C547.804 62.7939 554.081 61.9388 560.22 61.8294L560.166 58.8298C553.785 58.9436 547.281 59.832 540.749 61.4761L541.481 64.3854ZM578.926 63.9431C584.997 65.4841 590.817 67.8678 596.281 71.1107L597.812 68.5309C592.096 65.1388 586.009 62.6459 579.664 61.0353L578.926 63.9431ZM610.953 82.8537C615.097 87.1977 618.891 92.2339 622.256 97.9788L624.845 96.4623C621.368 90.5283 617.437 85.304 613.124 80.7829L610.953 82.8537ZM630.256 115.248C632.282 120.879 633.988 126.973 635.335 133.537L638.274 132.934C636.9 126.239 635.156 120.007 633.079 114.232L630.256 115.248ZM638.068 152.412C638.613 158.473 638.893 164.852 638.887 171.552L641.887 171.555C641.893 164.77 641.61 158.3 641.056 152.143L638.068 152.412ZM638.136 190.714C637.676 196.837 636.999 203.189 636.094 209.772L639.066 210.18C639.979 203.54 640.662 197.127 641.127 190.938L638.136 190.714ZM632.973 228.683C631.809 234.765 630.464 241.022 628.93 247.454L631.848 248.15C633.392 241.676 634.747 235.375 635.919 229.246L632.973 228.683ZM624.076 266.121C622.38 272.16 620.527 278.341 618.511 284.663L621.369 285.575C623.396 279.22 625.259 273.006 626.964 266.932L624.076 266.121Z" fill="#FF8600"/>
</svg>
