<svg width="63" height="52" viewBox="0 0 63 52" fill="none" xmlns="http://www.w3.org/2000/svg">
<mask id="path-1-outside-1_391_10" maskUnits="userSpaceOnUse" x="-2" y="-1" width="67" height="54" fill="black">
<rect fill="white" x="-2" y="-1" width="67" height="54"/>
<path d="M46.2175 0.569999H62.828L42.534 26.4935L62.828 52H46.2175L31.9005 34.208L17.5835 52H0.9035L21.267 26.4935L0.9035 0.569999H17.5835L31.9005 18.501L46.2175 0.569999Z"/>
</mask>
<path d="M46.2175 0.569999H62.828L42.534 26.4935L62.828 52H46.2175L31.9005 34.208L17.5835 52H0.9035L21.267 26.4935L0.9035 0.569999H17.5835L31.9005 18.501L46.2175 0.569999Z" fill="url(#paint0_radial_391_10)"/>
<path d="M46.2175 0.57V-0.43H45.7363L45.436 -0.053957L46.2175 0.57ZM62.828 0.57L63.6154 1.18642L64.8808 -0.43H62.828V0.57ZM42.534 26.4935L41.7466 25.8771L41.2601 26.4985L41.7515 27.1161L42.534 26.4935ZM62.828 52V53H64.9016L63.6105 51.3774L62.828 52ZM46.2175 52L45.4384 52.6269L45.7386 53H46.2175V52ZM31.9005 34.208L32.6796 33.5811L31.9005 32.6129L31.1214 33.5811L31.9005 34.208ZM17.5835 52V53H18.0624L18.3626 52.6269L17.5835 52ZM0.9035 52L0.122008 51.3761L-1.17447 53H0.9035V52ZM21.267 26.4935L22.0485 27.1174L22.5426 26.4985L22.0534 25.8758L21.267 26.4935ZM0.9035 0.57V-0.43H-1.15365L0.117109 1.18773L0.9035 0.57ZM17.5835 0.57L18.365 -0.053957L18.0647 -0.43H17.5835V0.57ZM31.9005 18.501L31.119 19.125L31.9005 20.1037L32.682 19.125L31.9005 18.501ZM46.2175 1.57H62.828V-0.43H46.2175V1.57ZM62.0406 -0.046423L41.7466 25.8771L43.3214 27.1099L63.6154 1.18642L62.0406 -0.046423ZM41.7515 27.1161L62.0455 52.6226L63.6105 51.3774L43.3165 25.8709L41.7515 27.1161ZM62.828 51H46.2175V53H62.828V51ZM46.9966 51.3731L32.6796 33.5811L31.1214 34.8349L45.4384 52.6269L46.9966 51.3731ZM31.1214 33.5811L16.8044 51.3731L18.3626 52.6269L32.6796 34.8349L31.1214 33.5811ZM17.5835 51H0.9035V53H17.5835V51ZM1.68499 52.6239L22.0485 27.1174L20.4855 25.8696L0.122008 51.3761L1.68499 52.6239ZM22.0534 25.8758L1.68989 -0.0477295L0.117109 1.18773L20.4806 27.1112L22.0534 25.8758ZM0.9035 1.57H17.5835V-0.43H0.9035V1.57ZM16.802 1.19395L31.119 19.125L32.682 17.877L18.365 -0.053957L16.802 1.19395ZM32.682 19.125L46.999 1.19395L45.436 -0.053957L31.119 17.877L32.682 19.125Z" fill="url(#paint1_linear_391_10)" mask="url(#path-1-outside-1_391_10)"/>
<path d="M46.2175 0.57V-0.43H45.7363L45.436 -0.053957L46.2175 0.57ZM62.828 0.57L63.6154 1.18642L64.8808 -0.43H62.828V0.57ZM42.534 26.4935L41.7466 25.8771L41.2601 26.4985L41.7515 27.1161L42.534 26.4935ZM62.828 52V53H64.9016L63.6105 51.3774L62.828 52ZM46.2175 52L45.4384 52.6269L45.7386 53H46.2175V52ZM31.9005 34.208L32.6796 33.5811L31.9005 32.6129L31.1214 33.5811L31.9005 34.208ZM17.5835 52V53H18.0624L18.3626 52.6269L17.5835 52ZM0.9035 52L0.122008 51.3761L-1.17447 53H0.9035V52ZM21.267 26.4935L22.0485 27.1174L22.5426 26.4985L22.0534 25.8758L21.267 26.4935ZM0.9035 0.57V-0.43H-1.15365L0.117109 1.18773L0.9035 0.57ZM17.5835 0.57L18.365 -0.053957L18.0647 -0.43H17.5835V0.57ZM31.9005 18.501L31.119 19.125L31.9005 20.1037L32.682 19.125L31.9005 18.501ZM46.2175 1.57H62.828V-0.43H46.2175V1.57ZM62.0406 -0.046423L41.7466 25.8771L43.3214 27.1099L63.6154 1.18642L62.0406 -0.046423ZM41.7515 27.1161L62.0455 52.6226L63.6105 51.3774L43.3165 25.8709L41.7515 27.1161ZM62.828 51H46.2175V53H62.828V51ZM46.9966 51.3731L32.6796 33.5811L31.1214 34.8349L45.4384 52.6269L46.9966 51.3731ZM31.1214 33.5811L16.8044 51.3731L18.3626 52.6269L32.6796 34.8349L31.1214 33.5811ZM17.5835 51H0.9035V53H17.5835V51ZM1.68499 52.6239L22.0485 27.1174L20.4855 25.8696L0.122008 51.3761L1.68499 52.6239ZM22.0534 25.8758L1.68989 -0.0477295L0.117109 1.18773L20.4806 27.1112L22.0534 25.8758ZM0.9035 1.57H17.5835V-0.43H0.9035V1.57ZM16.802 1.19395L31.119 19.125L32.682 17.877L18.365 -0.053957L16.802 1.19395ZM32.682 19.125L46.999 1.19395L45.436 -0.053957L31.119 17.877L32.682 19.125Z" fill="url(#paint2_linear_391_10)" mask="url(#path-1-outside-1_391_10)"/>
<defs>
<radialGradient id="paint0_radial_391_10" cx="0" cy="0" r="1" gradientUnits="userSpaceOnUse" gradientTransform="translate(32 33) rotate(90) scale(48 32)">
<stop stop-color="#626262"/>
<stop offset="1" stop-color="#202020"/>
</radialGradient>
<linearGradient id="paint1_linear_391_10" x1="2.78155e-07" y1="-4" x2="32" y2="26" gradientUnits="userSpaceOnUse">
<stop stop-color="#D9B3FF"/>
<stop offset="1" stop-color="#D6ADFF" stop-opacity="0"/>
</linearGradient>
<linearGradient id="paint2_linear_391_10" x1="64" y1="52" x2="32" y2="27" gradientUnits="userSpaceOnUse">
<stop stop-color="#D9B3FF"/>
<stop offset="1" stop-color="#D6ADFF" stop-opacity="0"/>
</linearGradient>
</defs>
</svg>
