<svg width="103" height="560" viewBox="0 0 103 560" fill="none" xmlns="http://www.w3.org/2000/svg">
<g opacity="0.5">
<mask id="path-1-outside-1_1_58" maskUnits="userSpaceOnUse" x="-1" y="-1" width="105" height="562" fill="black">
<rect fill="white" x="-1" y="-1" width="105" height="562"/>
<path d="M33.6 109.28L33.6 121.16L0.48 121.16L0.48 93.44L11.88 93.44L12 28.4H0.48V0.68L33.6 0.68V9.56C42 13.88 49.52 17.36 56.16 20C62.8 22.64 69.72 24.64 76.92 26C84.2 27.44 92.16 28.16 100.8 28.16V109.16L33.6 109.28ZM79.56 53.96C71.88 52.68 64.52 50.72 57.48 48.08C50.44 45.52 42.48 42.12 33.6 37.88V81.68H79.44L79.56 53.96ZM102.72 180.892C102.72 191.852 100.68 201.732 96.6 210.532C92.6 219.412 87.04 226.332 79.92 231.292C72.88 236.332 64.92 238.852 56.04 238.852C47.24 238.852 39.32 236.332 32.28 231.292C25.24 226.332 19.68 219.452 15.6 210.652C11.6 201.852 9.6 191.972 9.6 181.012C9.6 170.452 11.6 160.692 15.6 151.732C19.68 142.772 25.24 135.652 32.28 130.372C39.4 125.172 47.32 122.572 56.04 122.572C64.84 122.572 72.8 125.172 79.92 130.372C87.04 135.652 92.6 142.732 96.6 151.612C100.68 160.572 102.72 170.332 102.72 180.892ZM32.04 181.012C32.04 185.492 33 189.772 34.92 193.852C36.84 198.012 39.6 201.372 43.2 203.932C46.8 206.492 51.08 207.772 56.04 207.772C61 207.772 65.28 206.452 68.88 203.812C72.56 201.252 75.32 197.892 77.16 193.732C79.08 189.572 80.04 185.252 80.04 180.772C80.04 176.212 79.08 171.892 77.16 167.812C75.24 163.732 72.44 160.412 68.76 157.852C65.16 155.372 60.92 154.132 56.04 154.132C51.08 154.132 46.8 155.412 43.2 157.972C39.6 160.532 36.84 163.852 34.92 167.932C33 172.092 32.04 176.452 32.04 181.012ZM69.24 275.787L69.24 323.187H100.8V352.707H12L12 323.187H45.96V275.787H12V246.147H100.8V275.787H69.24ZM12 481.914V452.034L27.24 443.754V393.474L12 385.194V355.314L100.8 403.434V433.794L12 481.914ZM73.68 418.674L47.28 404.274V432.954L73.68 418.674ZM76.8 454.581H100.8V559.461L76.8 454.581ZM100.8 559.461H76.68V522.021H12V492.501H76.68V454.581H100.8V559.461Z"/>
</mask>
<path d="M33.6 109.28L33.5982 108.28L32.6 108.282V109.28H33.6ZM33.6 121.16V122.16H34.6V121.16H33.6ZM0.480003 121.16H-0.519997V122.16H0.480003V121.16ZM0.480003 93.44V92.44H-0.519997V93.44H0.480003ZM11.88 93.44V94.44H12.8782L12.88 93.4418L11.88 93.44ZM12 28.4L13 28.4018L13.0018 27.4H12V28.4ZM0.480003 28.4H-0.519997V29.4H0.480003V28.4ZM0.480003 0.68V-0.32H-0.519997V0.68H0.480003ZM33.6 0.68L34.6 0.68V-0.32L33.6 -0.32V0.68ZM33.6 9.56H32.6V10.1702L33.1427 10.4493L33.6 9.56ZM56.16 20L55.7905 20.9292L56.16 20ZM76.92 26L77.1141 25.019L77.1056 25.0174L76.92 26ZM100.8 28.16H101.8V27.16H100.8V28.16ZM100.8 109.16L100.802 110.16L101.8 110.158V109.16H100.8ZM79.56 53.96L80.56 53.9643L80.5637 53.1135L79.7244 52.9736L79.56 53.96ZM57.48 48.08L57.8311 47.1436L57.8217 47.1402L57.48 48.08ZM33.6 37.88L34.0309 36.9776L32.6 36.2944V37.88H33.6ZM33.6 81.68H32.6V82.68H33.6V81.68ZM79.44 81.68V82.68H80.4357L80.44 81.6843L79.44 81.68ZM32.6 109.28L32.6 121.16H34.6L34.6 109.28H32.6ZM33.6 120.16L0.480003 120.16V122.16L33.6 122.16V120.16ZM1.48 121.16L1.48 93.44H-0.519997L-0.519997 121.16H1.48ZM0.480003 94.44L11.88 94.44V92.44L0.480003 92.44V94.44ZM12.88 93.4418L13 28.4018L11 28.3982L10.88 93.4382L12.88 93.4418ZM12 27.4H0.480003V29.4H12V27.4ZM1.48 28.4V0.68H-0.519997V28.4H1.48ZM0.480003 1.68L33.6 1.68V-0.32L0.480003 -0.32V1.68ZM32.6 0.68V9.56H34.6V0.68L32.6 0.68ZM33.1427 10.4493C41.5628 14.7796 49.1129 18.2743 55.7905 20.9292L56.5295 19.0708C49.9271 16.4457 42.4372 12.9804 34.0574 8.67071L33.1427 10.4493ZM55.7905 20.9292C62.4915 23.5935 69.4731 25.6111 76.7344 26.9826L77.1056 25.0174C69.9669 23.6689 63.1085 21.6865 56.5295 19.0708L55.7905 20.9292ZM76.726 26.981C84.0793 28.4355 92.1052 29.16 100.8 29.16V27.16C92.2148 27.16 84.3207 26.4445 77.114 25.019L76.726 26.981ZM99.8 28.16V109.16H101.8V28.16H99.8ZM100.798 108.16L33.5982 108.28L33.6018 110.28L100.802 110.16L100.798 108.16ZM79.7244 52.9736C72.1059 51.7039 64.8085 49.7602 57.8311 47.1437L57.1289 49.0163C64.2315 51.6798 71.6542 53.6562 79.3956 54.9464L79.7244 52.9736ZM57.8217 47.1402C50.8197 44.594 42.8902 41.2077 34.0309 36.9776L33.1691 38.7824C42.0698 43.0323 50.0603 46.446 57.1383 49.0198L57.8217 47.1402ZM32.6 37.88V81.68H34.6V37.88H32.6ZM33.6 82.68H79.44V80.68H33.6V82.68ZM80.44 81.6843L80.56 53.9643L78.56 53.9557L78.44 81.6757L80.44 81.6843ZM96.6 210.532L95.6927 210.111L95.6882 210.121L96.6 210.532ZM79.92 231.292L79.3484 230.471L79.3379 230.479L79.92 231.292ZM32.28 231.292L32.8621 230.479L32.856 230.474L32.28 231.292ZM15.6 210.652L14.6896 211.066L14.6928 211.073L15.6 210.652ZM15.6 151.732L14.6899 151.317L14.6869 151.324L15.6 151.732ZM32.28 130.372L31.6902 129.564L31.68 129.572L32.28 130.372ZM79.92 130.372L80.5157 129.569L80.5098 129.564L79.92 130.372ZM96.6 151.612L95.6882 152.023L95.6899 152.026L96.6 151.612ZM34.92 193.852L35.828 193.433L35.8248 193.426L34.92 193.852ZM43.2 203.932L43.7795 203.117L43.2 203.932ZM68.88 203.812L68.3089 202.991L68.2987 202.998L68.2886 203.005L68.88 203.812ZM77.16 193.732L76.252 193.313L76.2487 193.32L76.2455 193.327L77.16 193.732ZM77.16 167.812L78.0648 167.386L77.16 167.812ZM68.76 157.852L69.3311 157.031L69.3273 157.028L68.76 157.852ZM43.2 157.972L43.7795 158.787L43.2 157.972ZM34.92 167.932L34.0152 167.506L34.012 167.513L34.92 167.932ZM101.72 180.892C101.72 191.726 99.7042 201.459 95.6928 210.111L97.5072 210.952C101.656 202.005 103.72 191.978 103.72 180.892H101.72ZM95.6882 210.121C91.7532 218.857 86.3025 225.627 79.3484 230.471L80.4916 232.112C87.7775 227.037 93.4468 219.967 97.5118 210.943L95.6882 210.121ZM79.3379 230.479C72.4723 235.394 64.7169 237.852 56.04 237.852V239.852C65.1231 239.852 73.2878 237.27 80.5021 232.105L79.3379 230.479ZM56.04 237.852C47.4451 237.852 39.7294 235.395 32.8621 230.479L31.6979 232.105C38.9106 237.269 47.0349 239.852 56.04 239.852V237.852ZM32.856 230.474C25.9767 225.628 20.523 218.893 16.5072 210.231L14.6928 211.073C18.837 220.011 24.5033 227.036 31.704 232.109L32.856 230.474ZM16.5104 210.238C12.5769 201.584 10.6 191.848 10.6 181.012H8.6C8.6 192.096 10.6231 202.119 14.6896 211.066L16.5104 210.238ZM10.6 181.012C10.6 170.581 12.5747 160.962 16.5131 152.14L14.6869 151.324C10.6253 160.422 8.6 170.322 8.6 181.012H10.6ZM16.5101 152.146C20.529 143.32 25.9893 136.34 32.88 131.172L31.68 129.572C24.4907 134.964 18.831 142.223 14.6899 151.317L16.5101 152.146ZM32.8698 131.179C39.8206 126.103 47.5345 123.572 56.04 123.572V121.572C47.1055 121.572 38.9794 124.241 31.6902 129.564L32.8698 131.179ZM56.04 123.572C64.6275 123.572 72.3811 126.104 79.3302 131.179L80.5098 129.564C73.2189 124.24 65.0525 121.572 56.04 121.572V123.572ZM79.3243 131.175C86.294 136.344 91.7513 143.283 95.6882 152.023L97.5118 151.201C93.4487 142.181 87.7861 134.96 80.5157 129.569L79.3243 131.175ZM95.6899 152.026C99.7064 160.847 101.72 170.464 101.72 180.892H103.72C103.72 170.199 101.654 160.297 97.5101 151.197L95.6899 152.026ZM31.04 181.012C31.04 185.64 32.0329 190.065 34.0152 194.278L35.8248 193.426C33.9671 189.478 33.04 185.344 33.04 181.012H31.04ZM34.012 194.271C36.0023 198.583 38.8729 202.082 42.6205 204.747L43.7795 203.117C40.3271 200.662 37.6777 197.441 35.828 193.433L34.012 194.271ZM42.6205 204.747C46.4102 207.442 50.8989 208.772 56.04 208.772V206.772C51.2611 206.772 47.1898 205.542 43.7795 203.117L42.6205 204.747ZM56.04 208.772C61.1879 208.772 65.6809 207.398 69.4714 204.618L68.2886 203.005C64.8791 205.506 60.8121 206.772 56.04 206.772V208.772ZM69.4511 204.633C73.2839 201.966 76.1615 198.461 78.0745 194.136L76.2455 193.327C74.4785 197.322 71.8361 200.537 68.3089 202.991L69.4511 204.633ZM78.068 194.151C80.0472 189.863 81.04 185.4 81.04 180.772H79.04C79.04 185.104 78.1128 189.281 76.252 193.313L78.068 194.151ZM81.04 180.772C81.04 176.066 80.0482 171.601 78.0648 167.386L76.2552 168.238C78.1118 172.183 79.04 176.357 79.04 180.772H81.04ZM78.0648 167.386C76.0706 163.148 73.1559 159.692 69.3311 157.031L68.1889 158.673C71.7241 161.132 74.4094 164.315 76.2552 168.238L78.0648 167.386ZM69.3273 157.028C65.5413 154.42 61.0981 153.132 56.04 153.132V155.132C60.7419 155.132 64.7787 156.324 68.1927 158.675L69.3273 157.028ZM56.04 153.132C50.8989 153.132 46.4102 154.462 42.6205 157.157L43.7795 158.787C47.1898 156.362 51.2611 155.132 56.04 155.132V153.132ZM42.6205 157.157C38.8774 159.819 36.0068 163.274 34.0152 167.506L35.8248 168.358C37.6732 164.43 40.3226 161.245 43.7795 158.787L42.6205 157.157ZM34.012 167.513C32.0317 171.804 31.04 176.306 31.04 181.012H33.04C33.04 176.597 33.9683 172.38 35.828 168.351L34.012 167.513ZM69.24 275.787V274.787H68.24V275.787H69.24ZM69.24 323.187H68.24V324.187H69.24V323.187ZM100.8 323.187H101.8V322.187H100.8V323.187ZM100.8 352.707V353.707H101.8V352.707H100.8ZM12 352.707H11V353.707H12V352.707ZM12 323.187V322.187H11V323.187H12ZM45.96 323.187V324.187H46.96V323.187H45.96ZM45.96 275.787H46.96V274.787H45.96V275.787ZM12 275.787H11V276.787H12V275.787ZM12 246.147V245.147H11V246.147H12ZM100.8 246.147H101.8V245.147H100.8V246.147ZM100.8 275.787V276.787H101.8V275.787H100.8ZM68.24 275.787L68.24 323.187H70.24L70.24 275.787H68.24ZM69.24 324.187H100.8V322.187H69.24V324.187ZM99.8 323.187V352.707H101.8V323.187H99.8ZM100.8 351.707H12V353.707H100.8V351.707ZM13 352.707L13 323.187H11L11 352.707H13ZM12 324.187H45.96V322.187H12V324.187ZM46.96 323.187V275.787H44.96V323.187H46.96ZM45.96 274.787H12V276.787H45.96V274.787ZM13 275.787V246.147H11V275.787H13ZM12 247.147H100.8V245.147H12V247.147ZM99.8 246.147V275.787H101.8V246.147H99.8ZM100.8 274.787H69.24V276.787H100.8V274.787ZM12 481.914H11V483.593L12.4764 482.793L12 481.914ZM12 452.034L11.5226 451.155L11 451.439V452.034H12ZM27.24 443.754L27.7174 444.632L28.24 444.349V443.754H27.24ZM27.24 393.474H28.24V392.879L27.7174 392.595L27.24 393.474ZM12 385.194H11V385.789L11.5226 386.072L12 385.194ZM12 355.314L12.4764 354.435L11 353.634V355.314H12ZM100.8 403.434H101.8V402.838L101.276 402.555L100.8 403.434ZM100.8 433.794L101.276 434.673L101.8 434.389V433.794H100.8ZM73.68 418.674L74.1558 419.553L75.7751 418.677L74.1589 417.796L73.68 418.674ZM47.28 404.274L47.7589 403.396L46.28 402.589V404.274H47.28ZM47.28 432.954H46.28V434.632L47.7558 433.833L47.28 432.954ZM13 481.914V452.034H11V481.914H13ZM12.4774 452.912L27.7174 444.632L26.7626 442.875L11.5226 451.155L12.4774 452.912ZM28.24 443.754V393.474H26.24V443.754H28.24ZM27.7174 392.595L12.4774 384.315L11.5226 386.072L26.7626 394.352L27.7174 392.595ZM13 385.194V355.314H11V385.194H13ZM11.5236 356.193L100.324 404.313L101.276 402.555L12.4764 354.435L11.5236 356.193ZM99.8 403.434V433.794H101.8V403.434H99.8ZM100.324 432.915L11.5236 481.035L12.4764 482.793L101.276 434.673L100.324 432.915ZM74.1589 417.796L47.7589 403.396L46.8011 405.152L73.2011 419.552L74.1589 417.796ZM46.28 404.274V432.954H48.28V404.274H46.28ZM47.7558 433.833L74.1558 419.553L73.2042 417.794L46.8042 432.074L47.7558 433.833ZM76.8 454.581V453.581H75.5453L75.8252 454.804L76.8 454.581ZM100.8 454.581H101.8V453.581H100.8V454.581ZM100.8 559.461L99.8252 559.684L101.8 559.461H100.8ZM100.8 559.461V560.461H101.8V559.461H100.8ZM76.68 559.461H75.68V560.461H76.68V559.461ZM76.68 522.021H77.68V521.021H76.68V522.021ZM12 522.021H11V523.021H12V522.021ZM12 492.501V491.501H11V492.501H12ZM76.68 492.501V493.501H77.68V492.501H76.68ZM76.68 454.581V453.581H75.68V454.581H76.68ZM100.8 454.581H101.8V453.581H100.8V454.581ZM76.8 455.581H100.8V453.581H76.8V455.581ZM99.8 454.581V559.461H101.8V454.581H99.8ZM101.775 559.238L77.7748 454.358L75.8252 454.804L99.8252 559.684L101.775 559.238ZM100.8 558.461H76.68V560.461H100.8V558.461ZM77.68 559.461V522.021H75.68V559.461H77.68ZM76.68 521.021H12V523.021H76.68V521.021ZM13 522.021V492.501H11V522.021H13ZM12 493.501H76.68V491.501H12V493.501ZM77.68 492.501V454.581H75.68V492.501H77.68ZM76.68 455.581H100.8V453.581H76.68V455.581ZM99.8 454.581V559.461H101.8V454.581H99.8Z" fill="url(#paint0_linear_1_58)" mask="url(#path-1-outside-1_1_58)"/>
</g>
<defs>
<linearGradient id="paint0_linear_1_58" x1="127" y1="281" x2="0.501778" y2="280.311" gradientUnits="userSpaceOnUse">
<stop stop-color="#FF8600"/>
<stop offset="1" stop-color="#FF8600" stop-opacity="0"/>
</linearGradient>
</defs>
</svg>
